<?xml version="1.0" encoding="UTF-8"?>
<svg id="Layer_2" data-name="Layer 2" xmlns="http://www.w3.org/2000/svg" viewBox="0 0 669.09 778.2">
  <g id="Layer_1-2" data-name="Layer 1">
    <g>
      <path d="M314.02,501.06c-42.82.59-86.46-2.42-126.88-17.12,2.63-29.04,7.51-57.97,15.16-86.1,6.26-23.01,16.67-60.31,36.21-74.79,9.22-6.83,40.06-20.21,51.14-20.94,8.25-.55,1.74,4.92,1.37,8.54-1.33,13.09,26.09,13.89,34.53,13.45,13.17-.69,45.16-7.74,52.31-19.69,5.34-8.91-3.89-9.18-4.85-16.35,16.03-.29,31.47-.25,47.33,2.16,16.83,2.56,34.82,6.44,43.23,22.83-32.13,30.29-77.26,43.07-120.21,48.86-4.47.6-26.4,1.65-27.88,3.12-1.64,3.54-1.99,8.46-2.47,12.53-3.13,26.24-1.49,53.61-2.05,80.04l3.05,43.46Z"/>
      <path d="M457.01,332.07c-9.75,36.84,12.37,72.6,50.51,77.98,2.89.41,8.09-.98,10.02.98l11.27,39.84c-45.39,24.24-97.43,38.21-148.44,45.05-18.69,2.51-37.6,3.33-56.35,5.14-4.35-42.19-5.49-84.84-.57-127.07,14.8-2.77,29.95-3.49,44.75-6.25,18.82-3.51,41.91-10.63,59.19-18.81,10.23-4.84,19.39-12.07,29.62-16.87Z"/>
      <path d="M359.12,624.98c-19.48-35.04-27.95-74.55-34.11-113.91,20.45-1.88,41.02-3.21,61.36-6.15,50.45-7.31,100.58-21,145.63-44.85,1.61,6.43,2.96,13.06,3.87,19.64,6.69,48.65-4.06,93.24-50.48,116.24-38.01,18.84-84.47,24.61-126.28,29.04Z"/>
      <path d="M257.81,71.35c53.09-1.95,116.82,5.08,166.72,23.69,21.59,8.05,30.6,13.73,32.47,38.53,1.89,25.05-4.63,107.89-18.15,127.82-9.14,13.47-30.29,14.04-45.29,14.71-53.86,2.4-124.02-5.23-176.55-17.53-27.31-6.39-45.43-9.88-47.97-42.03-1.54-19.49-.05-44.35,2.1-63.86,1.98-17.94,6.95-56.46,19.99-69.01,11.21-10.79,50.76-11.73,66.68-12.32ZM243.81,90.35c-41.11,2.38-49.48,11.34-55.63,51.37-3.65,23.74-10.1,72,10.36,88.31,15.62,12.45,69.83,18.44,91.1,20.9,30.64,3.54,67.27,7.13,97.92,5.17,38.25-2.45,42.47-22.45,47.32-55.68,4.42-30.31,12.6-73.82-21.18-88.54-42.78-18.64-123.29-24.22-169.89-21.53Z"/>
      <path d="M316.02,511.05c3.72,30.32,10.04,60.84,21.23,89.27,3.28,8.33,7.75,16.47,10.76,24.73-26.28.73-52.52-.43-78.18-6.31-45.71-10.47-71.78-30.87-80.52-78.48-2.8-15.24-2.82-30.73-3.29-46.2,10.43,2.4,20.53,6.13,30.98,8.51,32.32,7.37,65.92,8.83,99.02,8.48Z"/>
      <path d="M58.26,395.31c-1.11,1.05-4.08,9.81-3.24,10.74,15.11-3.57,27.34-11.44,37.51-22.98,2.01-2.28,3.74-7.61,6.75-6.86,1.48.37,11.91,9.55,13.75,11.34,3.87,3.77,14.43,15.41,16.04,19.96,6.95,19.74-22.67,49.72-41.6,50.58-14.21.64-24.43-23.14-31.87-33.14-.83-1.11.02-2.49-2.57-1.89.78,3.7.57,7.67,1.12,11.37,4.74,32.39,38.79,68.27,13.88,101.12-1.69,2.23-7.88,6.92-8.57,8.5-.49,1.12,1.56,2.07,1.6,3.51.07,2.23-8.4,8.37-9.53,11.47l-13.46-16.37c.19-.94,8.7-6.86,9.94-7.21,5.36-1.52,4.69,2.8,10.43-4.49,19.19-24.35-1.65-51.74-9.43-75.4-3.99-12.13-6.9-27.18-5.97-40,.48-6.55,4.22-15.31,4.07-21.02-.28-10.82-7.03-17.47-2.27-30.18,8.39-22.39,34.04-2.18,41.04,11.01-.27,3.13-9.73,10.59-12.54,12.49-3.46,2.34-13.96,6.4-15.07,7.44Z"/>
      <path d="M489.81,316.33c9.37-.88,23.28,4.72,32.18,8.26,16.68,6.64,32.98,15.27,47.98,25.09.66,2.26-2.18,3.73-3.16,5.67-5.95,11.78-1.98,22.04,5.14,32.08l-25.97,26.17c-2,1.01-4.01-.38-5.94-1.06-12.78-4.54-40.37-16.49-51.71-23.28-25.8-15.43-30.82-69.89,1.49-72.92Z"/>
      <path d="M424.01,707.06l18.5,19.98,13.53-15.51,10.97.52c.77-.67-6.14-11.9-10.49-11.92-4.86-.02-10.84,13.37-13.86,12.85-2.01-2.01-9.43-9.31-8.19-11.9.59-1.23,11.89-8.62,13.29-8.87,5.75-1.04,8.32,4.84,16.19-.73s8.79-20.47,13.03-28.97c10.78-1.3,21.31-1.35,29.53,6.55,22.54,21.65,21.09,94.53-11.78,106.2-8.97,3.18-39.46,2.53-48.08-1.34-12.27-5.51-22.63-27.62-22.63-40.37v-26.5ZM490.77,690.29c-5.75,1.49-9.86,11.61-11.12,16.91-2.31,9.73-1.36,25.11,3.83,33.89,10.77,18.22,22.34-1.43,23.52-14.55.85-9.54-.12-40.44-16.23-36.25Z"/>
      <path d="M630.02,439.05c-20.35-.28-40.91,7.65-54.5,22.99-10.15-12.13-20.04-25.29-25.3-40.35l28.5-26.5c4.97,1.02,8.75,4.8,14.03,5.63,9.14,1.44,17.77-.63,22.76-8.74,2.83-.07,15.24,41.32,14.5,46.98Z"/>
      <path d="M318.87,745.19l8.72,14.85c1.19.27,7.68-5.28,9.77-6.16,1.08-.45.99-1.38,2.18.15l1.47,18.51c-.33,3.89-7.25,4.31-10.46,4.56-19.22,1.48-51.85,1.47-71.07,0-9.83-.75-12.43-2.63-10.24-13.31,1.49-7.24,11.05-15.98,17.05-19.95,2.21-1.47,14.13-8.37,15.73-7.34l10.64,12.49,9.93-9.88c2.44-.55,4.24,6.93,7.13,7.81,3.67,1.11,7.32-2.79,9.15-1.71Z"/>
      <path d="M400.01,632.06c21.72-3.19,43.34-7.49,64.21-14.29,5.36-1.75,11.34-5.48,16.8-5.2-4.04,15.39-5.7,32.23-12.64,46.41-22.24-5.78-45.35-9.56-68.37-6.92v-20Z"/>
      <path d="M153.02,467.06c5.07-17.26-2.27-30.49-16.9-39.66.82-4.71,1.43-10.1.9-14.85-.42-3.68-4.24-9.64-2.03-12l20.38-11.34c10.59,9.69,19.57,23.51,23.67,37.31,3.47,11.65-.24,18.91-1.52,30.55l-24.5,9.99Z"/>
      <path d="M321.02,637.05l-1.51,12c-1.45,3.02-15.71,5.81-19.47,6.53-16.39,3.11-33.91,3.77-50.28.49l-1.06-1.23-4.67-30.77c24.84,8,50.82,12.56,77,12.99Z"/>
      <path d="M321.01,675.05c-16.08-3.22-28.35,11.33-26.99,27.01-5.58-.45-11.96.65-17.42-.09-13.42-1.83-21.16-24.62-24.58-35.91,18.3,3.31,36.97,1.48,55.01-2.49,2.13-.47,10.84-3.6,11.42-3.46,2.12.51,2.53,12.51,2.56,14.95Z"/>
      <path d="M354.67,38.71c-3.18,3.42-9.08,5.25-13.19,7.31l-2.57,16.92-13.89-.89,3.05-18.29c-25.53-13.3-9.81-52.01,17.92-42.18,15.01,5.32,19.1,25.93,8.68,37.13ZM340.31,31.73c2.11,1.53,4.88,1.99,6.25-.69,1.59-3.11-2.95-6.48-2.48-8.38.3-1.22,5.39-2.82,4.77-5.95-3.38-6.65-5.8-.57-9.37-.66-2.68-.07-7.64-8.61-10.44-.51l3.04,6.97c-4.84,2.21-6.94,7.42-.75,9.4l7.06-2.77c1.17.35,1.33,2.17,1.92,2.6Z"/>
      <path d="M460.02,238.05c4.82-27.07,8.49-54.42,9-82,8.49.84,17.68,5.82,19.55,14.94,1.81,8.82-1.2,28.82-2.7,38.41-2.78,17.83-4.58,28.12-25.86,28.64Z"/>
      <path d="M364.85,299.9c-9.01,4.66-17.72,7.93-27.81,9.68-6.16,1.07-29.49,3.7-33.1-1.2l-5.92-24.31,64.36,4.13c2.77.94,3.06,9.18,2.47,11.7Z"/>
      <path d="M162.01,128.06c-1.58,14.75-4.35,29.61-5.04,44.45-.52,11.16,1.48,25.56.04,36.07-.19,1.41.56,1.71-1.47,1.46-5.98-.74-13.81-6.27-16.03-11.99-3.22-8.33-.38-43.45,1.76-53.21,2.47-11.23,9.57-15.63,20.72-16.77Z"/>
      <path d="M623.76,448.25c2.34-.09,4.02,9.9,4.25,12.31,1.19,12.85-.73,29.92-17.48,28.5-12.06-1.02-19-15-25.42-23.52,9.47-8.48,25.79-16.83,38.66-17.3Z"/>
      <path d="M20.97,329.07c4.4,10.34,6.66,22.4,15.85,29.62-3.59,9.07-3.24,17.85-1.81,27.35-13.73-3.17-20.46-12.18-26.17-24.32-1.66-3.53-10.03-23.48-8.7-25.55l20.82-7.11Z"/>
      <path d="M75.89,304.18c7.98,18.6,20.62,36.02,11.11,56.87-1.82,1.34-4.73-4.44-5.95-5.54-4.43-3.97-10.33-7.46-15.87-9.62,1.94-12.67-6.86-21.13-10.08-32.18,3.07-1.78,18.21-11.17,20.79-9.53Z"/>
      <path d="M637.01,458.06c21.87,6.1,27.17,29.95,32.08,49.35l-20.1,7.23c-5.14-10.16-4.9-22.18-14.85-29.3-.54-2.15,2.87-6.78,2.87-8.79v-18.5Z"/>
      <path d="M614.01,529.04c-5.53,1.15-12.58,6.78-17.74,7.85-1.67.35-2.44.41-3.77-.82-1.65-1.52-9.91-20.75-10.95-24.05-3.83-12.15-2.56-20.07,1.47-31.96,1.39-1.31,7.11,7.67,8.5,8.99,2.63,2.5,12.64,7.34,13.05,7.99,1.13,1.8-1.06,6.74-.34,10.28.63,3.11,10.57,20.66,9.78,21.72Z"/>
      <path d="M401.01,661.05c21.41-.59,43.2.17,63.59,6.94-.71,12.02-3.45,22.07-16.93,13.27l-12.16,8.78-10.01-18.98-13,9.82c-5.47-5.38-12.69-11.29-11.49-19.82Z"/>
      <path d="M581.75,354.3c15.48-2.82,34.96,18.47,26.12,33.11-7.19,11.9-25.1.49-30.68-8.02-5.07-7.73-7.19-22.95,4.57-25.09Z"/>
      <path d="M102.02,462.07c12.61-4.28,23.01-13.72,29.63-25.1,16.27,5.55,18.88,27.94,4.11,37.33-11.52,7.32-29.32.32-33.74-12.23Z"/>
      <path d="M200.01,363.06l-15.98,51.99c-4.05-12.51-13.2-21.88-21.01-31.97,12.15-6.85,22.93-16.96,37-20.01Z"/>
      <path d="M316.8,683.26c17.74-1.37,20.81,27.07,3.65,29.73-20.79,3.22-24.08-28.15-3.65-29.73Z"/>
      <path d="M257.01,133.05l18.7-4.8c1.53-.03,7.98,6.67,9.27,8.34,5.86,7.58.39,14.68.03,23.46,2.66.55,1.72-.68,2.48-1.97,2.17-3.69,5.52-13.15,10.04-14,12.85-2.42,15.01,5.2,23.47,11.97-1.9-3.93-6.09-16.19-9.04-18.45-4.01-3.07-11.66-.23-16.25-2.49-2.67-5.72-15.04-12.5-14.65-18.41.11-1.65,3.74-16.48,4.57-16.71,25.98.3,52.08,3.51,77.58,8.37,18.25,3.48,58.08,9.71,64.13,29.87,4.88,16.29-.21,55.36-3.79,72.84-4.33,21.14-8.26,32.66-32.15,34.85-42.5,3.89-130.84-4.67-171.79-16.95-15.97-4.79-24.1-10.6-25.62-28.38-1.55-18.25,2.18-69.73,10.87-85.2,7.91-14.1,21.53-13,35.68-15.32,9.43,1.36,25.18-3.38,33.85-.87.84.24,1.75.97,1.26,1.92l-4.15,18.91-14.47,13.02ZM240.75,142.29c-25.66,4.36-27.42,50.83-1.79,56.32,39.97,8.56,42.89-63.3,1.79-56.32ZM373.83,155.29c-31.79,2.28-31.5,57.84.68,57.84,33.88,0,33.99-60.32-.68-57.84ZM289.26,212.81c8,4.61,11.8-6.85,18.27-9.69.9.08,7.49,12.05,10.5,13.42,5.77,2.63,8.2-2.78,5.82-7.83-1.97-4.18-11.69-17.94-16.27-17.65-2.6.17-15.7,11.84-17.56,14.49s-2.81,4.27-.76,7.25Z"/>
      <path d="M491.66,701.17c5.33-1.76,7.05,8.53,7.39,12.36.37,4.25-.29,23.55-5.65,24.48-8.25,1.42-8.57-34.57-1.73-36.84Z"/>
    </g>
  </g>
</svg>